<svg xmlns="http://www.w3.org/2000/svg" viewBox="0 0 160 160" role="img" aria-label="Folhas amazonicas">
  <g fill="none" stroke="#006b35" stroke-linecap="round" stroke-linejoin="round">
    <path stroke-width="7" d="M80 136c1-31 7-57 21-78" />
    <path stroke-width="4" d="M89 109c16-3 30-11 43-25" />
    <path stroke-width="4" d="M72 111c-15-5-27-15-36-30" />
    <path stroke-width="5" d="M101 60c18-33 38-38 48-35-2 21-17 43-48 35Z" />
    <path stroke-width="5" d="M94 78c30-15 51-7 59 3-15 17-41 23-59-3Z" />
    <path stroke-width="5" d="M69 83C36 70 25 49 28 37c23 0 45 14 41 46Z" />
    <path stroke-width="5" d="M60 105c-30 2-46-12-50-24 19-8 43-3 50 24Z" />
    <path stroke-width="4" d="M111 49c10-7 20-12 31-17M104 76c15-1 30 1 43 7M59 72C48 61 39 51 32 40M51 100c-13-7-25-13-36-17" />
  </g>
</svg>
